<svg xmlns="http://www.w3.org/2000/svg" width="1814" height="629" viewBox="0 0 1814 629">
  <g fill="none" fill-rule="evenodd">
    <path fill="#005C9A" fill-rule="nonzero" d="M0 315v315h630V0H0v315zm507.7-25.1c16 4 28.2 11.1 39.4 22.7 5.8 6.2 14.4 17.5 15.1 20.2.2.8-27.2 19.2-43.8 29.5-.6.4-3-2.2-5.7-6.2-8.1-11.8-16.6-16.9-29.6-17.8-19.1-1.3-31.4 8.7-31.3 25.4 0 4.9.7 7.8 2.7 11.8 4.2 8.7 12 13.9 36.5 24.5 45.1 19.4 64.4 32.2 76.4 50.4a91.4 91.4 0 0 1 7.3 76.8c-10 26.2-34.8 44-69.7 49.9a193.1 193.1 0 0 1-48-.5c-25.3-4.5-49.3-17-64.1-33.4-5.8-6.4-17.1-23.1-16.4-24.3.3-.4 2.9-2 5.8-3.7l23.4-13.5 18.1-10.5 3.8 5.6a84.6 84.6 0 0 0 23.9 22.9c20.1 10.6 47.7 9.1 61.3-3.1a23.2 23.2 0 0 0 8.2-18.9 23 23 0 0 0-4.7-16c-4.9-7-14.9-12.9-43.3-25.2-32.5-14-46.5-22.7-59.3-36.5a83 83 0 0 1-17.3-31.5c-2.4-8.9-3-31.2-1.1-40.2 6.7-31.4 30.4-53.3 64.6-59.8 11.1-2.1 36.9-1.3 47.8 1.4zm-147.9 26.3l.2 25.8h-82v233h-58V342h-82v-25.3c0-14 .3-25.7.7-26 .3-.4 50.2-.6 110.7-.5l110.1.3.3 25.7z"/>
    <text fill="#00538B" font-family="RobotoMono-Bold, Roboto Mono" font-size="200" font-weight="bold" letter-spacing=".8">
      <tspan x="689" y="563">evaluator</tspan>
    </text>
  </g>
</svg>
